<?xml version="1.0" encoding="utf-8"?>
<svg version="1.1" id="svg2" width="1024px" height="1024px" viewBox="328.927 113.345 367.257 367.189" xmlns="http://www.w3.org/2000/svg" xmlns:bx="https://boxy-svg.com" preserveAspectRatio="none"><defs id="defs6"><clipPath clipPathUnits="userSpaceOnUse" id="clipPath16"><path d="M -0.015,-0.2021 H 841.8748 V 595.0735 H -0.015 Z" clip-rule="evenodd" id="path14"/></clipPath><bx:export><bx:file format="svg" path="logo.svg" width="1024" height="1024"/></bx:export></defs><g id="g8" transform="matrix(1.3333333,0,0,-1.3333333,0,793.70133)"><g id="g10"><g id="g12" clip-path="url(#clipPath16)"><g id="g18"><path d="m 296.1513,423.0629 h 178.1856 c 5.8215,-11.8134 10.0879,-24.8984 12.4194,-38.8672 0.7574,-4.5383 1.3008,-9.0527 1.6486,-13.5318 H 282.0475 c 1.4259,18.9352 6.38,36.7453 14.1038,52.399 z" style="fill:#ffc100;fill-opacity:1;fill-rule:evenodd;stroke:#ffc100;stroke-width:1.0001;stroke-linecap:butt;stroke-linejoin:miter;stroke-miterlimit:22.9256;stroke-dasharray:none;stroke-opacity:1" id="path20"/><path d="m 299.1557,409.3189 h 5.1237 v -22.2115 h 8.022 v -7.2391 h -13.1457 z m 25.6763,-24.5971 h -5.8116 l -0.8345,-4.8535 h -5.2356 l 6.2481,29.4506 h 5.6143 l 6.2212,-29.4506 h -5.3711 z m -1.086,6.3757 -1.8119,10.5843 -1.8201,-10.5843 z m 8.953,18.2214 h 4.7874 l 6.2249,-16.261 v 16.261 h 4.8455 v -29.4506 h -4.8455 l -6.1898,16.1714 v -16.1714 h -4.8225 z m 30.3244,-17.3988 4.498,-2.4063 c -0.3016,-2.2349 -0.7769,-4.1063 -1.4297,-5.6007 -0.6495,-1.5015 -1.4531,-2.6326 -2.4188,-3.394 -0.9624,-0.7605 -2.1873,-1.1443 -3.6752,-1.1443 -1.8082,0 -3.2799,0.466 -4.428,1.3915 -1.1437,0.9321 -2.1291,2.5705 -2.9596,4.9082 -0.8309,2.3375 -1.2481,5.3402 -1.2481,8.9878 0,4.8668 0.7305,8.61 2.1909,11.2286 1.4644,2.6119 3.5317,3.9212 6.2053,3.9212 2.0906,0 3.7366,-0.7469 4.9346,-2.2487 1.1939,-1.501 2.0865,-3.8044 2.6659,-6.9166 l -4.5207,-1.7753 c -0.1584,0.8906 -0.3248,1.5423 -0.4986,1.9536 -0.2897,0.6923 -0.6412,1.2272 -1.0547,1.5971 -0.417,0.3773 -0.8808,0.5621 -1.395,0.5621 -1.167,0 -2.0591,-0.8292 -2.6776,-2.4817 -0.4674,-1.2272 -0.7035,-3.1601 -0.7035,-5.7856 0,-3.2629 0.2783,-5.4912 0.8387,-6.705 0.5602,-1.2065 1.3445,-1.8094 2.3568,-1.8094 0.9816,0 1.7234,0.4867 2.2257,1.4669 0.5026,0.9735 0.8657,2.3925 1.0936,4.2506 z m 6.9979,17.3988 h 5.1236 v -10.2833 h 5.6104 v 10.2833 h 5.1468 v -29.4506 h -5.1468 v 11.9282 h -5.6104 v -11.9282 h -5.1236 z m 19.2887,0 h 13.725 v -6.2938 h -8.5782 v -4.6885 h 7.9521 v -6.0052 h -7.9521 v -5.7997 h 8.8331 v -6.6634 H 389.31 Z m 24.4981,0 h 9.6094 c 1.5999,0 2.8287,-0.7064 3.6862,-2.1121 0.8578,-1.4049 1.2869,-3.1462 1.2869,-5.2234 0,-1.7414 -0.3052,-3.2355 -0.9198,-4.4768 -0.4056,-0.8359 -1.0043,-1.4876 -1.7889,-1.9743 1.1936,-0.5069 2.0673,-1.3774 2.6314,-2.6187 0.5601,-1.2407 0.8421,-2.7969 0.8421,-4.6686 0,-1.5282 -0.2007,-2.8996 -0.5989,-4.1196 -0.4014,-1.2206 -0.9502,-2.1799 -1.6421,-2.8931 -0.4326,-0.4388 -1.082,-0.7605 -1.9511,-0.9595 -1.1554,-0.2676 -1.9208,-0.4045 -2.2992,-0.4045 h -8.856 z m 5.1698,-11.5586 h 2.2371 c 0.8,0 1.3604,0.2472 1.673,0.7339 0.3133,0.4935 0.4717,1.1999 0.4717,2.1251 0,0.8567 -0.1584,1.5285 -0.4717,2.0084 -0.3126,0.487 -0.8614,0.7265 -1.6381,0.7265 h -2.272 z m 0,-11.5577 h 2.6161 c 0.8844,0 1.5066,0.2812 1.87,0.836 0.3629,0.5555 0.5449,1.296 0.5449,2.2354 0,0.8699 -0.1778,1.5698 -0.5372,2.0973 -0.3592,0.5281 -0.9893,0.7951 -1.8896,0.7951 h -2.6042 z m 12.1907,8.3702 c 0,4.8055 0.7537,8.5484 2.2646,11.222 1.5106,2.6808 3.6125,4.0173 6.3096,4.0173 2.763,0 4.8918,-1.3158 6.3873,-3.9419 1.4953,-2.6322 2.2414,-6.3204 2.2414,-11.0576 0,-3.4413 -0.3249,-6.2584 -0.978,-8.4592 -0.6528,-2.2005 -1.5995,-3.9146 -2.8321,-5.1417 -1.2364,-1.2266 -2.7745,-1.8369 -4.6176,-1.8369 -1.87,0 -3.4197,0.5275 -4.6485,1.5832 -1.2246,1.0629 -2.2215,2.7354 -2.9829,5.0249 -0.7608,2.2828 -1.1438,5.1486 -1.1438,8.5899 z m 5.1236,-0.0207 c 0,-2.9679 0.313,-5.1072 0.9352,-6.4027 0.6261,-1.2957 1.476,-1.9468 2.55,-1.9468 1.1016,0 1.9596,0.6375 2.5623,1.9057 0.6063,1.2751 0.9076,3.5513 0.9076,6.8486 0,2.7694 -0.3166,4.7919 -0.9462,6.0664 -0.6341,1.2821 -1.4879,1.9196 -2.5699,1.9196 -1.0352,0 -1.87,-0.6508 -2.4959,-1.9468 -0.6301,-1.2955 -0.9431,-3.4481 -0.9431,-6.444 z m 14.7915,14.7668 h 6.766 l 2.577,-17.9204 2.5849,17.9204 h 6.7348 V 379.8683 H 465.55 v 22.451 l -3.2377,-22.451 h -3.8024 l -3.2301,22.451 v -22.451 h -4.1961 z" style="fill:#000000;fill-opacity:1;fill-rule:nonzero;stroke:none" id="path22"/><path d="m 265.4807,434.9353 c -2.0494,8.4676 1.2294,13.0218 9.5001,14.7248 4.6978,0.9672 12.5129,1.1123 16.3213,3.907 5.599,4.1091 -1.8876,25.1096 9.9881,28.2753 5.2351,1.3958 11.9787,-0.8762 17.2435,-1.6489 1.9457,-0.2854 5.1281,-0.6826 6.965,0.2523 1.5429,0.7855 2.6444,2.8551 3.42,4.3067 2.3281,4.3554 3.3698,9.3024 6.1917,13.4878 4.0513,6.0086 9.6627,6.2742 15.8153,2.8292 2.5328,-1.4178 4.9746,-2.9684 7.4877,-4.4132 1.6504,-0.9488 3.5864,-2.0095 5.4525,-2.4528 4.1114,-0.9763 7.1634,2.0259 9.6392,4.8858 9.4878,10.961 15.3723,16.3411 26.2792,2.9865 1.8524,-2.2682 6.1338,-8.2301 8.9948,-9.0986 3.3736,-1.0244 10.2901,2.8454 13.123,4.3447 5.4684,2.8953 12.9753,6.008 17.6913,0.125 1.6067,-2.0036 2.6133,-4.6783 3.4626,-7.0739 1.0128,-2.8573 1.9272,-5.7161 3.13,-8.507 2.2839,-5.3008 3.8154,-6.1339 9.6769,-5.6271 5.508,0.4765 14.1491,2.7652 19.154,0.2285 11.0058,-5.5786 0.0408,-25.4458 9.0368,-29.4506 4.2344,-1.8853 9.7237,-2.4134 14.266,-3.6504 7.2677,-1.9795 10.8541,-6.0375 8.9549,-13.7787 -0.6628,-2.702 -1.6866,-5.2659 -2.7312,-7.8392 -0.8305,-2.0469 -1.764,-4.2457 -2.2241,-6.406 -0.9606,-4.5077 1.0307,-6.9375 4.9289,-9.2455 3.7965,-2.2479 9.1128,-5.2191 12.0396,-8.4376 4.9159,-5.4054 2.2811,-11.6379 -1.974,-16.2799 -2.4466,-2.6691 -6.7873,-7.102 -8.2829,-10.2889 -1.9114,-4.072 2.1158,-8.21 4.4113,-11.198 2.8176,-3.6678 8.0425,-9.8221 7.3511,-14.7402 -0.7452,-5.3042 -8.0527,-9.004 -12.2885,-11.3097 -3.0787,-1.6758 -8.5558,-3.9396 -9.0303,-7.8834 -0.5205,-4.3214 2.882,-11.34 4.0005,-15.7476 2.0441,-8.0558 -0.8623,-12.9424 -9.2883,-14.851 -4.6321,-1.0488 -12.9004,-1.2537 -16.5852,-3.9583 -5.5207,-4.0535 1.9315,-25.1271 -9.949,-28.2977 -5.2353,-1.3969 -11.9778,0.8754 -17.242,1.6512 -1.9508,0.2874 -5.1245,0.6826 -6.9659,-0.254 -1.5474,-0.7869 -2.647,-2.8477 -3.4243,-4.3038 -2.3258,-4.3555 -3.3647,-9.3045 -6.1843,-13.4898 -4.0496,-6.0103 -9.6636,-6.268 -15.8162,-2.8296 -2.0548,1.1481 -4.0745,2.3519 -6.1186,3.5176 -7.605,4.335 -10.1214,5.7974 -16.4642,-1.5378 -2.7558,-3.1876 -7.5458,-8.6667 -11.4378,-10.2161 -3.3944,-1.3507 -6.6435,-0.4504 -9.4668,1.6481 -2.113,1.5706 -3.7276,3.5611 -5.3754,5.5785 -1.8487,2.2638 -6.1375,8.2367 -8.9932,9.1021 -3.3655,1.0202 -10.2974,-2.8537 -13.1249,-4.3475 -5.4627,-2.8857 -12.949,-5.9771 -17.6806,-0.1417 -1.6194,1.9975 -2.6368,4.67 -3.4897,7.0676 -1.0208,2.8664 -1.9355,5.7396 -3.1277,8.547 -2.2476,5.2926 -3.8348,6.1183 -9.6608,5.6126 -5.4944,-0.4768 -14.1582,-2.7584 -19.1529,-0.2296 -11.0199,5.5794 -0.0348,25.4259 -9.0416,29.4539 -4.5547,2.0367 -10.3893,2.316 -15.2467,3.9025 -6.6731,2.1793 -9.7101,6.4378 -7.9705,13.5238 0.663,2.7006 1.6869,5.2637 2.7303,7.8353 0.8306,2.0486 1.7638,4.248 2.2238,6.4094 0.9595,4.5082 -1.0253,6.9383 -4.9269,9.2443 -4.1221,2.4364 -9.6511,5.3079 -12.5586,9.1316 -4.1491,5.4564 -1.7325,10.9717 2.4888,15.5857 1.5764,1.7226 3.0623,3.5223 4.646,5.239 6.5707,7.1195 4.6403,9.2072 -0.7707,16.2493 -2.8194,3.6686 -8.0436,9.8229 -7.3531,14.7424 0.7452,5.3065 8.0504,9.004 12.2885,11.3088 2.4205,1.3165 5.6148,3.0898 7.5739,5.04 0.9646,0.9601 1.5845,1.9007 1.6219,3.2724 0.0457,1.6917 -0.7146,3.9619 -1.2257,5.5675 -1.057,3.3219 -2.1041,6.5537 -2.9259,9.9499 z m 93.7395,48.6303 c 65.1376,14.0754 124.0299,-27.2633 137.4885,-86.1919 14.5962,-63.9097 -27.9623,-122.9599 -86.9306,-135.9723 -65.0577,-14.3566 -124.2128,27.3467 -137.6201,86.1607 -14.5423,63.7949 28.0417,123.2504 87.0622,136.0035" style="fill:#ff0000;fill-opacity:1;fill-rule:evenodd;stroke:none" id="path24"/><path d="m 364.6494,469.4956 c 55.7631,11.0984 107.2562,-25.3877 117.8076,-77.1523 11.2821,-55.3467 -25.5742,-106.3406 -77.8995,-116.8081 -55.8731,-11.1773 -107.5034,25.1901 -118.0658,76.989 -11.3346,55.5851 25.5382,106.4976 78.1577,116.9714 z m 124.6464,-88.2227 c -5.3469,59.4397 -57.7247,99.6344 -113.6514,94.9609 -59.8592,-5.002 -100.8575,-57.3976 -96.0279,-112.3886 5.2186,-59.4215 57.8758,-99.9306 113.6617,-95.091 59.9111,5.1967 100.9822,57.3278 96.0176,112.5187" style="fill:#ff0000;fill-opacity:1;fill-rule:evenodd;stroke:none" id="path26"/><path d="m 311.6687,344.3193 3.0237,-1.5126 c -0.1593,-1.258 -0.3121,-2.2614 -0.4552,-3.0177 -0.1463,-0.7489 -0.3543,-1.6433 -0.6177,-2.6686 l 1.4534,-2.2396 c 0.1785,-0.2546 0.4062,-0.5601 0.6859,-0.9165 l -2.084,-5.3518 c -0.3804,0.4507 -0.777,0.9743 -1.1835,1.5707 -0.4096,0.5964 -0.7772,1.1052 -1.099,1.527 -0.6732,-0.989 -1.3461,-1.7087 -2.0191,-2.1668 -0.93,-0.6182 -1.9896,-0.9309 -3.1765,-0.9309 -1.8598,0 -3.2417,0.8655 -4.1488,2.6034 -0.907,1.7305 -1.362,3.8321 -1.362,6.3045 0,1.7816 0.2664,3.4611 0.7996,5.0465 0.5332,1.5778 1.4046,2.9231 2.6173,4.0139 -0.5071,1.3816 -0.855,2.5741 -1.0437,3.5923 -0.1917,1.0106 -0.2861,2.0506 -0.2861,3.0977 0,2.2179 0.3773,4.0431 1.1316,5.4754 0.7574,1.4327 1.9021,2.1527 3.4399,2.1527 1.567,0 2.7181,-0.6838 3.4529,-2.0435 0.7378,-1.3672 1.1055,-2.996 1.1055,-4.9011 0,-1.069 -0.114,-2.0869 -0.3382,-3.0685 -0.2276,-0.982 -0.4975,-1.7745 -0.8161,-2.3854 -0.3186,-0.6106 -0.8875,-1.5196 -1.7101,-2.7266 0.6794,-1.5271 1.3881,-2.9452 2.1262,-4.254 0.195,0.887 0.3643,1.8179 0.504,2.7995 z m -4.4543,5.4828 c 0.5006,0.6182 0.8844,1.2798 1.1573,1.9998 0.2733,0.72 0.4097,1.3961 0.4097,2.0361 0,0.669 -0.1137,1.2362 -0.3413,1.7014 -0.2277,0.4584 -0.5429,0.6908 -0.9428,0.6908 -0.3935,0 -0.7121,-0.2543 -0.9593,-0.7707 -0.2472,-0.5089 -0.3705,-1.1126 -0.3705,-1.8105 0,-0.8873 0.3478,-2.1671 1.0469,-3.8469 z m -1.3785,-7.5989 c -0.5366,-0.8362 -0.891,-1.5562 -1.0633,-2.1523 -0.1755,-0.6035 -0.2633,-1.2362 -0.2633,-1.9052 0,-1.0397 0.1984,-1.9632 0.5984,-2.7779 0.3996,-0.807 0.9198,-1.2144 1.5604,-1.2144 0.6925,0 1.4695,0.6038 2.3312,1.8182 -0.8226,1.4178 -1.879,3.4976 -3.1634,6.2316 z m 19.4655,18.1721 h 7.1787 c 1.5639,0 2.7346,-0.8291 3.5147,-2.4942 0.777,-1.6654 1.1673,-4.036 1.1673,-7.1118 0,-3.1559 -0.426,-5.6282 -1.2744,-7.4024 -0.8487,-1.7816 -2.1459,-2.6689 -3.8886,-2.6689 h -2.3669 v -11.5619 h -4.3308 z m 4.3308,-13.3509 h 1.0629 c 0.8391,0 1.4276,0.3271 1.7658,0.9743 0.3378,0.6474 0.5068,1.4763 0.5068,2.4871 0,0.9816 -0.1463,1.8105 -0.4419,2.4942 -0.2929,0.6834 -0.8453,1.0253 -1.6583,1.0253 h -1.2353 z m 17.5339,-12.74 h -4.8897 l -0.7024,-5.1483 h -4.4057 l 5.2575,31.2392 h 4.7242 l 5.2344,-31.2392 h -4.5192 z m -0.9136,6.7626 -1.5247,11.2275 -1.5316,-11.2275 z m 7.5756,-1.5778 4.0967,0.5743 c 0.0875,-1.4833 0.2698,-2.6178 0.5428,-3.3885 0.4456,-1.258 1.0794,-1.8907 1.9054,-1.8907 0.6146,0 1.0891,0.32 1.4208,0.9672 0.335,0.6471 0.5006,1.396 0.5006,2.247 0,0.807 -0.1559,1.5344 -0.4714,2.1742 -0.3153,0.6397 -1.05,1.2362 -2.2043,1.8107 -1.8924,0.9451 -3.2383,2.2105 -4.0447,3.7885 -0.813,1.5707 -1.2192,3.5776 -1.2192,6.0208 0,1.5999 0.2081,3.1125 0.6242,4.5377 0.4161,1.4324 1.0403,2.5523 1.876,3.3667 0.8356,0.8144 1.98,1.2218 3.4333,1.2218 1.7852,0 3.1442,-0.7419 4.0805,-2.2326 0.9365,-1.4834 1.4924,-3.8466 1.6713,-7.0897 l -4.0578,-0.5383 c -0.1072,1.4181 -0.3348,2.4505 -0.6795,3.0906 -0.3478,0.6471 -0.8257,0.9672 -1.4338,0.9672 -0.5006,0 -0.8813,-0.2401 -1.1347,-0.7127 -0.2537,-0.4728 -0.3804,-1.0545 -0.3804,-1.7379 0,-0.4946 0.1041,-0.9383 0.309,-1.3382 0.1981,-0.4144 0.6795,-0.7926 1.4403,-1.1489 1.8856,-0.9088 3.2349,-1.8323 4.0479,-2.7632 0.816,-0.9306 1.411,-2.0795 1.7815,-3.4611 0.3708,-1.3745 0.5559,-2.916 0.5559,-4.625 0,-1.9996 -0.2469,-3.8466 -0.7413,-5.5409 -0.4974,-1.6872 -1.1865,-2.9741 -2.0775,-3.8466 -0.8875,-0.8728 -2.006,-1.3091 -3.3585,-1.3091 -2.3734,0 -4.0186,1.0253 -4.9322,3.0685 -0.9136,2.0435 -1.4307,4.6395 -1.5509,7.7882 z m 14.6764,20.9061 h 13.1287 v -7.7227 h -4.4088 v -23.5165 h -4.3112 v 23.5165 h -4.4087 z m 15.8856,0 h 11.5487 v -6.6756 h -7.2179 v -4.9737 h 6.6912 v -6.37 h -6.6912 v -6.1517 h 7.4325 v -7.0682 h -11.7633 z m 14.9106,0 h 4.3112 v -23.5604 h 6.7495 v -7.6788 h -11.0607 z m 22.4274,-26.0909 h -4.8901 l -0.7021,-5.1483 h -4.4056 l 5.2574,31.2392 h 4.724 l 5.2347,-31.2392 h -4.5193 z m -0.9136,6.7626 -1.5248,11.2275 -1.5315,-11.2275 z m 8.3752,-11.9109 v 31.2392 h 7.1918 c 1.3331,0 2.3539,-0.2545 3.0563,-0.771 0.7056,-0.5088 1.2745,-1.4616 1.7071,-2.8432 0.4322,-1.3889 0.6468,-3.0832 0.6468,-5.0757 0,-1.7305 -0.1658,-3.2284 -0.4975,-4.4864 -0.3282,-1.2654 -0.7835,-2.2833 -1.3654,-3.0688 -0.3674,-0.4943 -0.8748,-0.9088 -1.5151,-1.2362 0.5136,-0.3852 0.8875,-0.7633 1.1216,-1.1488 0.1562,-0.2546 0.387,-0.8071 0.6894,-1.6436 0.2991,-0.8362 0.5006,-1.4833 0.6015,-1.9414 l 2.0971,-9.0241 h -4.877 l -2.3051,9.5258 c -0.2929,1.2362 -0.5528,2.0361 -0.7804,2.4069 -0.3121,0.4799 -0.6664,0.72 -1.0599,0.72 h -0.3804 v -12.6527 z m 4.3308,18.5428 h 1.8241 c 0.195,0 0.5785,0.1454 1.1443,0.4289 0.2861,0.1236 0.5202,0.451 0.6991,0.9816 0.182,0.531 0.2732,1.1345 0.2732,1.8182 0,1.0105 -0.1431,1.7887 -0.4294,2.3267 -0.286,0.5454 -0.8226,0.8146 -1.6127,0.8146 h -1.8986 z m 11.7825,12.6964 h 4.3308 v -31.2392 h -4.3308 z m 16.8318,-26.0909 h -4.8897 l -0.7025,-5.1483 h -4.4056 l 5.2577,31.2392 h 4.724 l 5.2347,-31.2392 h -4.5193 z m -0.9136,6.7626 -1.5247,11.2275 -1.5313,-11.2275 z" style="fill:#ff0000;fill-opacity:1;fill-rule:nonzero;stroke:none" id="path28"/><g id="g30"><g id="g32"/><g id="g38"/></g></g></g></g></g></svg>